<svg width="512" height="512" viewBox="0 0 512 512" fill="none" xmlns="http://www.w3.org/2000/svg">
<g clip-path="url(#clip0_110_3964)">
<path d="M0 0H512V512H0V0Z" fill="#151515"/>
<path d="M150.943 147.635C146.928 147.635 144.238 151.119 144.912 155.451L162.25 250.721C176.886 305.144 224.425 308.072 253.989 303.784C248.58 334.433 246.396 332.468 230.116 332.468C212.669 332.468 198.621 346.515 198.621 363.962C198.621 381.409 212.669 395.456 230.116 395.456H244.034C244.253 395.456 244.463 395.453 244.682 395.448C244.753 395.45 244.799 395.456 244.855 395.456C281.581 395.456 296.575 381.231 304.179 359.37C316.871 322.877 366.919 155.451 366.919 155.451C368.211 151.251 364.713 147.635 360.32 147.635H339.259C318.578 147.635 278.981 148.649 277.822 155.451L256.165 282.531C223.578 292.985 236.008 198.409 226.314 155.451C224.829 149.269 184.989 147.635 167.302 147.635H150.943Z" fill="#FF8515"/>
</g>
<defs>
<clipPath id="clip0_110_3964">
<rect width="512" height="512" fill="white"/>
</clipPath>
</defs>
</svg>
